HIERARCHY
ROOT Hips
{
	OFFSET 0.000000 89.005402 0.000000
	CHANNELS 6 Xposition Yposition Zposition Xrotation Yrotation Zrotation
	JOINT Spine
	{
		OFFSET 0.116900 10.681000 0.373400
		CHANNELS 3 Xrotation Yrotation Zrotation
		JOINT Spine1
		{
			OFFSET 0.000000 13.840401 0.053500
			CHANNELS 3 Xrotation Yrotation Zrotation
			JOINT Spine2
			{
				OFFSET 0.000000 14.712700 -0.366200
				CHANNELS 3 Xrotation Yrotation Zrotation
				JOINT Neck
				{
					OFFSET 0.000000 35.415497 -3.314200
					CHANNELS 3 Xrotation Yrotation Zrotation
					JOINT Head
					{
						OFFSET 0.000000 16.899200 1.218300
						CHANNELS 3 Xrotation Yrotation Zrotation
						JOINT HeadTop_End
						{
							OFFSET 0.000000 22.206207 2.192500
							CHANNELS 3 Xrotation Yrotation Zrotation
							End Site
							{
								OFFSET 0.000000 22.314178 0.000000
							}
						}
					}
				}
				JOINT LeftShoulder
				{
					OFFSET 12.896400 26.716293 -4.548400
					CHANNELS 3 Xrotation Yrotation Zrotation
					JOINT LeftArm
					{
						OFFSET 19.027000 -4.857010 -1.718400
						CHANNELS 3 Xrotation Yrotation Zrotation
						JOINT LeftForeArm
						{
							OFFSET 24.179897 0.000000 0.000000
							CHANNELS 3 Xrotation Yrotation Zrotation
							JOINT LeftHand
							{
								OFFSET 27.156403 0.000000 0.000000
								CHANNELS 3 Xrotation Yrotation Zrotation
								JOINT LeftHandIndex1
								{
									OFFSET 16.441200 0.000000 0.000000
									CHANNELS 3 Xrotation Yrotation Zrotation
									JOINT LeftHandIndex2
									{
										OFFSET 4.821899 0.000000 0.000000
										CHANNELS 3 Xrotation Yrotation Zrotation
										JOINT LeftHandIndex3
										{
											OFFSET 6.386497 0.000000 0.000000
											CHANNELS 3 Xrotation Yrotation Zrotation
											JOINT LeftHandIndex4
											{
												OFFSET 5.188988 0.000000 0.000000
												CHANNELS 3 Xrotation Yrotation Zrotation
												End Site
												{
													OFFSET -0.178703 5.185913 0.000177
												}
											}
										}
									}
								}
								JOINT LeftHandThumb1
								{
									OFFSET 6.534897 -5.032593 5.900300
									CHANNELS 3 Xrotation Yrotation Zrotation
									JOINT LeftHandThumb2
									{
										OFFSET 3.818176 -2.204422 2.204423
										CHANNELS 3 Xrotation Yrotation Zrotation
										JOINT LeftHandThumb3
										{
											OFFSET 3.252098 -1.877594 1.877601
											CHANNELS 3 Xrotation Yrotation Zrotation
											JOINT LeftHandThumb4
											{
												OFFSET 5.251778 -3.032120 3.032117
												CHANNELS 3 Xrotation Yrotation Zrotation
												End Site
												{
													OFFSET 0.000023 6.780014 0.000000
												}
											}
										}
									}
								}
							}
						}
					}
				}
				JOINT RightShoulder
				{
					OFFSET -12.896300 26.716293 -4.548400
					CHANNELS 3 Xrotation Yrotation Zrotation
					JOINT RightArm
					{
						OFFSET -19.027000 -4.857010 -1.718400
						CHANNELS 3 Xrotation Yrotation Zrotation
						JOINT RightForeArm
						{
							OFFSET -24.179897 0.000000 0.000000
							CHANNELS 3 Xrotation Yrotation Zrotation
							JOINT RightHand
							{
								OFFSET -27.156403 0.000000 0.000000
								CHANNELS 3 Xrotation Yrotation Zrotation
								JOINT RightHandThumb1
								{
									OFFSET -6.591202 -4.852203 5.988100
									CHANNELS 3 Xrotation Yrotation Zrotation
									JOINT RightHandThumb2
									{
										OFFSET -3.818176 -2.204422 2.204423
										CHANNELS 3 Xrotation Yrotation Zrotation
										JOINT RightHandThumb3
										{
											OFFSET -3.252098 -1.877594 1.877601
											CHANNELS 3 Xrotation Yrotation Zrotation
											JOINT RightHandThumb4
											{
												OFFSET -5.251778 -3.032120 3.032117
												CHANNELS 3 Xrotation Yrotation Zrotation
												End Site
												{
													OFFSET -0.000023 6.780014 0.000000
												}
											}
										}
									}
								}
								JOINT RightHandIndex1
								{
									OFFSET -16.029404 0.000000 0.000000
									CHANNELS 3 Xrotation Yrotation Zrotation
									JOINT RightHandIndex2
									{
										OFFSET -5.213303 0.000000 0.000000
										CHANNELS 3 Xrotation Yrotation Zrotation
										JOINT RightHandIndex3
										{
											OFFSET -6.386528 0.000000 0.000000
											CHANNELS 3 Xrotation Yrotation Zrotation
											JOINT RightHandIndex4
											{
												OFFSET -5.189026 0.000000 0.000000
												CHANNELS 3 Xrotation Yrotation Zrotation
												End Site
												{
													OFFSET 0.236702 5.183624 0.001972
												}
											}
										}
									}
								}
							}
						}
					}
				}
			}
		}
	}
	JOINT LeftUpLeg
	{
		OFFSET 14.073000 -7.904099 -1.463000
		CHANNELS 3 Xrotation Yrotation Zrotation
		JOINT LeftLeg
		{
			OFFSET -0.109806 -34.073280 4.093200
			CHANNELS 3 Xrotation Yrotation Zrotation
			JOINT LeftFoot
			{
				OFFSET 0.109806 -29.899420 -6.319000
				CHANNELS 3 Xrotation Yrotation Zrotation
				JOINT LeftToeBase
				{
					OFFSET 1.551100 -14.988700 20.535801
					CHANNELS 3 Xrotation Yrotation Zrotation
					JOINT LeftToe_End
					{
						OFFSET 0.221200 0.570800 13.248301
						CHANNELS 3 Xrotation Yrotation Zrotation
						End Site
						{
							OFFSET 0.000000 13.262435 0.000000
						}
					}
				}
			}
		}
	}
	JOINT RightUpLeg
	{
		OFFSET -13.839300 -7.904099 -1.463000
		CHANNELS 3 Xrotation Yrotation Zrotation
		JOINT RightLeg
		{
			OFFSET 0.109694 -34.073219 4.093300
			CHANNELS 3 Xrotation Yrotation Zrotation
			JOINT RightFoot
			{
				OFFSET -0.109694 -29.899384 -6.319200
				CHANNELS 3 Xrotation Yrotation Zrotation
				JOINT RightToeBase
				{
					OFFSET -1.551100 -14.988700 20.535801
					CHANNELS 3 Xrotation Yrotation Zrotation
					JOINT RightToe_End
					{
						OFFSET -0.221200 0.570900 13.248299
						CHANNELS 3 Xrotation Yrotation Zrotation
						End Site
						{
							OFFSET 0.000000 13.262440 0.000000
						}
					}
				}
			}
		}
	}
}
MOTION
Frames: 7
Frame Time: 0.033333
-0.422344 74.101921 1.360843 -11.523572 -42.106655 -12.398165 15.486079 0.425959 6.446914 18.286290 13.014028 -0.443315 16.792450 14.167931 0.939057 -7.159465 -4.558827 6.672244 -10.785541 10.646759 -1.767657 0.000001 0.000000 -0.000000 -2.970353 -26.857364 -4.218458 -65.650043 -14.523526 -63.580476 -94.230451 17.213887 -65.594712 -30.804706 7.773072 3.481612 9.479707 -1.289784 -20.785562 0.709477 2.796441 -28.467064 0.714011 2.804775 -28.559724 0.000000 -0.000001 -0.000000 0.699135 9.503404 -2.418107 5.975200 12.647539 1.348339 -23.873543 -17.664199 1.604944 0.000001 -0.000001 0.000001 -0.080180 -6.712896 -0.143312 -19.966159 45.491717 53.573139 41.764701 128.604006 -52.578195 10.856817 -1.481640 -7.689836 13.942475 -4.273698 -5.300368 7.113169 -20.767532 -2.619503 -3.463310 -24.899759 -18.660451 -0.000000 -0.000000 -0.000001 0.357767 -5.832723 5.175889 0.094349 -0.933635 11.539827 0.777613 -2.578478 33.559940 0.000001 -0.000001 0.000003 -28.766506 7.716428 3.880802 82.829752 -0.624068 5.113444 -22.251855 -4.551560 4.996276 -24.180712 -0.478758 0.260929 -0.000000 0.000001 0.000000 -30.155862 -9.818483 7.693700 58.575006 5.697293 -2.301478 -17.076658 2.969944 -7.292962 -4.220727 -2.836483 -0.824101 -0.000000 0.000000 -0.000000 
-4.538040 75.679970 5.243602 -11.949239 -43.542145 -13.020582 15.795820 0.976117 6.324355 18.481042 13.610192 -0.500436 17.001333 14.736579 0.871830 -7.194646 -4.598466 6.742608 -10.667153 10.570929 -2.027211 0.000001 0.000000 -0.000001 -2.787139 -26.716176 -4.155823 -66.070646 -15.092433 -63.912355 -94.212850 16.966224 -65.361967 -31.291463 7.704357 2.770769 9.479706 -1.289786 -20.785563 0.709476 2.796440 -28.467071 0.714015 2.804773 -28.559722 -0.000002 0.000000 -0.000000 0.699133 9.503398 -2.418106 5.975197 12.647538 1.348339 -23.873547 -17.664199 1.604945 -0.000000 -0.000002 0.000001 -0.007953 -6.617749 -0.127770 -20.107850 44.838911 53.544045 41.740772 129.181963 -52.423058 11.685247 -1.728826 -7.111713 13.942474 -4.273695 -5.300367 7.113170 -20.767532 -2.619504 -3.463308 -24.899755 -18.660451 0.000002 0.000002 -0.000001 0.357767 -5.832721 5.175890 0.094347 -0.933635 11.539823 0.777612 -2.578476 33.559940 -0.000000 -0.000000 0.000001 -36.790681 7.945082 4.549665 74.441241 -1.925899 5.180032 -13.746165 -1.820220 2.599065 -15.174828 -0.423478 1.532762 0.000000 0.000002 -0.000000 -22.386567 -9.967994 8.638971 55.997941 7.544933 -2.353915 -21.496593 3.899279 -8.827978 -4.220730 -2.836482 -0.824100 -0.000000 -0.000003 -0.000000 
-8.243196 76.584671 8.754497 -11.943025 -44.853466 -13.109116 15.905402 1.352119 6.068153 18.502537 14.089605 -0.557736 17.044911 15.182148 0.767606 -7.234784 -4.618877 6.806829 -10.560473 10.580100 -2.348610 -0.000001 -0.000000 0.000000 -2.617520 -26.522702 -4.097698 -66.165812 -15.429247 -64.280495 -94.162340 16.816455 -65.335814 -31.547356 7.578530 2.173782 9.479704 -1.289783 -20.785563 0.709476 2.796439 -28.467069 0.714013 2.804775 -28.559724 -0.000000 -0.000000 0.000001 0.699133 9.503401 -2.418109 5.975198 12.647538 1.348341 -23.873548 -17.664198 1.604943 0.000003 -0.000002 0.000001 0.074952 -6.570767 -0.099947 -19.951563 44.326411 53.460345 41.740864 129.659352 -52.313860 12.345597 -1.799142 -6.565048 13.942475 -4.273698 -5.300368 7.113169 -20.767530 -2.619504 -3.463309 -24.899757 -18.660452 -0.000000 0.000002 -0.000002 0.357767 -5.832725 5.175888 0.094348 -0.933635 11.539824 0.777611 -2.578478 33.559943 0.000000 0.000001 -0.000003 -42.324439 7.543991 5.253380 65.178310 -4.727626 4.796212 -9.637884 -0.037135 -0.171447 -1.099655 0.036060 5.073120 0.000000 0.000003 -0.000000 -16.112782 -9.789883 8.704275 53.750942 7.618675 -2.286444 -25.363561 6.397859 -9.132853 -4.220739 -2.836473 -0.824107 -0.000000 0.000001 0.000000 
-11.707043 76.907600 12.262511 -11.727713 -46.018143 -13.114216 15.789432 1.622429 5.904296 18.467052 14.509178 -0.720847 17.051904 15.543439 0.553755 -7.292231 -4.625361 6.875931 -10.569410 10.576082 -2.467417 -0.000001 -0.000001 -0.000000 -2.447905 -26.379722 -4.042225 -66.209313 -15.643519 -64.544693 -94.165762 16.865096 -65.382956 -31.418566 7.448093 1.938685 9.479706 -1.289783 -20.785565 0.709477 2.796442 -28.467069 0.714011 2.804774 -28.559727 -0.000001 0.000000 -0.000000 0.699133 9.503401 -2.418108 5.975199 12.647539 1.348338 -23.873550 -17.664198 1.604944 -0.000002 0.000001 0.000001 0.127961 -6.546741 -0.085800 -19.684653 43.993515 53.451377 41.821136 130.084272 -52.326872 12.834696 -1.685909 -6.247992 13.942475 -4.273697 -5.300367 7.113170 -20.767530 -2.619503 -3.463308 -24.899755 -18.660452 0.000001 0.000000 0.000001 0.357766 -5.832722 5.175889 0.094347 -0.933634 11.539827 0.777613 -2.578478 33.559940 0.000000 0.000001 -0.000002 -45.060981 6.613345 5.763163 57.111798 -4.938668 4.336484 -12.846391 -1.041540 -1.810068 -1.026592 0.040411 4.918721 -0.000000 -0.000000 -0.000000 -10.507635 -9.455074 8.707187 52.026695 9.176491 -2.277580 -29.163856 7.175763 -9.856579 -4.220739 -2.836472 -0.824108 0.000000 -0.000001 -0.000000 
-15.381580 76.755066 15.931066 -11.731646 -46.927330 -13.430092 15.629686 1.920079 6.011136 18.479584 14.856008 -0.965409 17.080070 15.877528 0.352897 -7.348805 -4.623084 6.939877 -10.606573 10.423041 -2.527013 -0.000001 -0.000001 0.000001 -2.276808 -26.282737 -3.985562 -66.350124 -15.970782 -64.802929 -94.250013 16.850912 -65.119877 -31.327776 7.466800 1.765744 9.479706 -1.289782 -20.785565 0.709477 2.796439 -28.467074 0.714012 2.804774 -28.559724 -0.000002 0.000001 -0.000000 0.699133 9.503402 -2.418108 5.975199 12.647537 1.348341 -23.873550 -17.664199 1.604946 0.000000 -0.000000 0.000001 0.174890 -6.546128 -0.073754 -19.408561 43.724955 53.497757 41.940210 130.385893 -52.407393 13.197670 -1.512119 -6.130797 13.942475 -4.273696 -5.300367 7.113170 -20.767533 -2.619503 -3.463309 -24.899755 -18.660451 -0.000000 0.000000 0.000001 0.357767 -5.832722 5.175888 0.094347 -0.933634 11.539826 0.777613 -2.578479 33.559940 -0.000000 -0.000000 -0.000000 -47.514095 5.500325 6.428261 51.806049 -5.089032 3.876905 -18.740306 -1.146235 -2.712249 -0.896615 0.047821 4.644211 -0.000001 0.000002 -0.000000 -4.357680 -9.172253 8.700020 50.134111 10.699419 -2.253256 -33.155084 8.012738 -10.502048 -4.220749 -2.836485 -0.824105 -0.000000 -0.000004 -0.000000 
-19.280880 76.224083 19.833296 -11.910380 -47.505851 -13.819423 15.427417 2.167162 6.216245 18.514922 15.055798 -1.217956 17.120593 16.095249 0.161510 -7.388876 -4.617014 6.988868 -10.548817 10.242780 -2.600015 0.000000 -0.000000 0.000001 -2.126569 -26.268337 -3.938623 -66.433309 -16.270656 -64.977208 -94.328758 16.788082 -64.815176 -31.253617 7.499088 1.721653 9.479707 -1.289786 -20.785565 0.709476 2.796438 -28.467069 0.714014 2.804777 -28.559726 -0.000000 -0.000000 0.000000 0.699134 9.503398 -2.418109 5.975197 12.647536 1.348341 -23.873547 -17.664199 1.604944 0.000002 0.000002 0.000001 0.224545 -6.563738 -0.061329 -19.050714 43.502691 53.452101 41.983646 130.508126 -52.435151 13.211444 -1.263243 -6.191172 13.942474 -4.273698 -5.300368 7.113168 -20.767530 -2.619503 -3.463308 -24.899755 -18.660454 0.000001 0.000001 -0.000001 0.357766 -5.832722 5.175889 0.094347 -0.933635 11.539828 0.777612 -2.578477 33.559940 -0.000001 -0.000000 -0.000000 -49.065436 3.913419 7.011058 48.217102 -2.073705 3.405724 -24.728416 0.025737 -2.925130 -0.726838 0.057591 4.285491 -0.000002 0.000002 0.000002 2.607494 -8.986036 8.440876 47.540599 12.252422 -2.202688 -37.163117 8.879965 -10.958930 -4.220738 -2.836480 -0.824105 -0.000000 0.000001 -0.000000 
-23.335051 75.351639 23.935619 -12.212493 -47.676851 -14.069535 15.303428 2.319436 6.305233 18.551521 15.107357 -1.422348 17.161960 16.177745 -0.002082 -7.386827 -4.613282 7.013815 -10.422111 10.013224 -2.730139 -0.000002 -0.000001 -0.000000 -2.004349 -26.287218 -3.898852 -66.546827 -16.592041 -65.119618 -94.374629 16.584488 -64.435335 -31.302849 7.591719 1.737229 9.479705 -1.289783 -20.785562 0.709476 2.796441 -28.467072 0.714013 2.804775 -28.559726 -0.000002 0.000000 0.000001 0.699133 9.503398 -2.418108 5.975198 12.647538 1.348339 -23.873547 -17.664199 1.604945 0.000003 0.000000 0.000001 0.287921 -6.605230 -0.045788 -18.674456 43.373935 53.302397 41.975553 130.449441 -52.431373 12.968152 -0.910844 -6.450982 13.942475 -4.273695 -5.300368 7.113170 -20.767530 -2.619503 -3.463308 -24.899760 -18.660452 -0.000000 -0.000002 -0.000000 0.357768 -5.832722 5.175889 0.094346 -0.933633 11.539825 0.777611 -2.578477 33.559940 0.000000 -0.000001 -0.000000 -49.327117 2.862931 7.220787 43.998569 0.082495 2.721469 -26.444645 1.868152 -2.331666 -0.534231 0.068598 3.878519 -0.000001 0.000001 0.000002 9.165120 -7.687796 7.983961 45.602233 11.159154 -2.183906 -40.750988 10.301921 -9.932827 -7.408413 -2.839697 -0.298781 0.000001 0.000001 -0.000000 
